<?xml version="1.0" encoding="UTF-8"?>
<svg id="Layer_1" data-name="Layer 1" xmlns="http://www.w3.org/2000/svg" xmlns:xlink="http://www.w3.org/1999/xlink" viewBox="0 0 1246.86 1246.86">
  <defs>
    <style>
      .cls-1 {
        fill: url(#linear-gradient-8);
      }

      .cls-2 {
        fill: url(#linear-gradient-7);
      }

      .cls-3 {
        fill: url(#linear-gradient-5);
      }

      .cls-4 {
        fill: url(#linear-gradient-6);
      }

      .cls-5 {
        fill: url(#linear-gradient-9);
      }

      .cls-6 {
        fill: url(#linear-gradient-4);
      }

      .cls-7 {
        fill: url(#linear-gradient-3);
      }

      .cls-8 {
        fill: url(#linear-gradient-2);
      }

      .cls-9 {
        fill: url(#linear-gradient);
      }

      .cls-10 {
        fill: url(#linear-gradient-10);
      }

      .cls-11 {
        fill: url(#linear-gradient-11);
      }

      .cls-12 {
        fill: url(#linear-gradient-12);
      }
    </style>
    <linearGradient id="linear-gradient" x1="312.92" y1="540.98" x2="411.78" y2="540.98" gradientUnits="userSpaceOnUse">
      <stop offset="0" stop-color="#db9125"/>
      <stop offset="0" stop-color="#db9326"/>
      <stop offset=".04" stop-color="#e8b743"/>
      <stop offset=".08" stop-color="#f2d35a"/>
      <stop offset=".12" stop-color="#f9e76b"/>
      <stop offset=".16" stop-color="#fdf374"/>
      <stop offset=".2" stop-color="#fff778"/>
      <stop offset=".28" stop-color="#e9c24a"/>
      <stop offset=".34" stop-color="#d99a26"/>
      <stop offset=".36" stop-color="#ca8e23"/>
      <stop offset=".4" stop-color="#b67d20"/>
      <stop offset=".43" stop-color="#aa741e"/>
      <stop offset=".47" stop-color="#a7711e"/>
      <stop offset=".51" stop-color="#ab7622"/>
      <stop offset=".56" stop-color="#b8852e"/>
      <stop offset=".61" stop-color="#cd9e42"/>
      <stop offset=".66" stop-color="#eac05e"/>
      <stop offset=".68" stop-color="#f6ce69"/>
      <stop offset=".72" stop-color="#f3c862"/>
      <stop offset=".78" stop-color="#eaba4f"/>
      <stop offset=".85" stop-color="#dda230"/>
      <stop offset=".87" stop-color="#d99a26"/>
      <stop offset="1" stop-color="#f6ce69"/>
    </linearGradient>
    <linearGradient id="linear-gradient-2" x1="425.72" y1="539.1" x2="588.69" y2="539.1" xlink:href="#linear-gradient"/>
    <linearGradient id="linear-gradient-3" x1="602.62" y1="541.97" x2="750.18" y2="541.97" xlink:href="#linear-gradient"/>
    <linearGradient id="linear-gradient-4" x1="756.41" y1="540.9" x2="922.5" y2="540.9" xlink:href="#linear-gradient"/>
    <linearGradient id="linear-gradient-5" x1="299.62" y1="735.59" x2="408.03" y2="735.59" xlink:href="#linear-gradient"/>
    <linearGradient id="linear-gradient-6" x1="404.57" y1="712.29" x2="486.16" y2="712.29" xlink:href="#linear-gradient"/>
    <linearGradient id="linear-gradient-7" x1="499.99" y1="699.49" x2="572.66" y2="699.49" xlink:href="#linear-gradient"/>
    <linearGradient id="linear-gradient-8" x1="569.13" y1="700.19" x2="606.74" y2="700.19" xlink:href="#linear-gradient"/>
    <linearGradient id="linear-gradient-9" x1="623.75" y1="700.15" x2="641.11" y2="700.15" xlink:href="#linear-gradient"/>
    <linearGradient id="linear-gradient-10" x1="671.11" y1="732.61" x2="742.82" y2="732.61" xlink:href="#linear-gradient"/>
    <linearGradient id="linear-gradient-11" x1="739.36" y1="713.88" x2="816.24" y2="713.88" xlink:href="#linear-gradient"/>
    <linearGradient id="linear-gradient-12" x1="813.27" y1="717.61" x2="910.55" y2="717.61" xlink:href="#linear-gradient"/>
  </defs>
  <g>
    <path class="cls-9" d="M397.52,500.49c-4.26-15.41-11.8-32.79-32.46-32.79-18.36,0-27.05,12.95-27.05,26.07,0,16.89,11.31,25.08,31.32,34.76,20.82,10.17,42.46,21.48,42.46,47.88s-21.97,46.23-55.42,46.23c-10.17,0-18.36-1.8-24.59-3.93-6.23-1.97-9.67-3.93-12.13-5.08-1.64-4.75-5.25-26.56-6.72-38.2l7.38-2.13c4.1,15.25,16.07,40.33,41.15,40.33,17.87,0,28.36-10.99,28.36-28.2s-13.12-25.58-31.81-35.42c-17.05-8.53-40.5-20.49-40.5-46.89,0-23.94,19.35-43.78,51.32-43.78,11.64,0,22.63,2.79,31.81,5.74.98,8.53,2.13,18.36,4.26,34.1l-7.38,1.31Z"/>
    <path class="cls-8" d="M526.71,618.86v-6.89c15.25-2.13,17.38-4.26,14.1-13.94-3.44-9.51-7.87-21.48-13.12-35.25h-52.63c-4.1,10.98-7.38,20.33-10.49,29.84-5.25,14.59-3.28,17.38,15.25,19.35v6.89h-54.11v-6.89c15.9-2.46,19.35-4.1,28.04-25.41l51.48-125.1,8.53-2.13c15.74,42.46,31.48,85.09,47.71,127.23,7.87,21.15,11.31,23.77,27.22,25.41v6.89h-61.98ZM502.61,492.29h-.49c-7.87,19.84-15.58,40.33-22.95,59.68h44.92l-21.48-59.68Z"/>
    <path class="cls-7" d="M749.04,620.99c-2.95,0-5.74-.16-8.69-.49-19.84-.98-30-6.23-41.32-21.97-8.36-11.64-16.4-26.23-23.77-37.71-4.43-6.89-8.69-9.84-21.31-9.84h-6.89v37.38c0,20.17,2.29,21.97,21.97,23.61v6.89h-66.4v-6.89c19.84-1.64,22.13-3.44,22.13-23.61v-95.09c0-20.49-2.13-21.81-21.15-23.12v-7.21h62.8c18.53,0,30.5,2.13,39.84,8.36,10,6.23,16.23,16.89,16.23,31.48,0,20.82-13.44,33.28-30.99,40.66,4.26,7.87,14.26,23.61,21.64,34.59,8.85,12.62,14.1,19.35,19.84,25.25,6.23,7.05,11.64,9.67,17.22,10.99l-1.15,6.72ZM658.04,542.95c12.3,0,20.5-1.97,26.72-6.89,9.35-7.21,13.12-16.56,13.12-29.51,0-25.74-16.89-35.25-35.09-35.25-7.38,0-11.31.98-13.12,2.29-1.64,1.31-2.62,4.1-2.62,10.33v59.02h10.98Z"/>
    <path class="cls-6" d="M831.01,462.94c31.32,0,55.25,6.39,70.5,20.5,12.13,11.64,20.99,29.18,20.99,51.65,0,28.36-11.64,49.84-30.82,63.94-18.85,13.61-43.94,19.84-74.27,19.84h-60.99v-6.89c20.99-1.48,23.12-2.95,23.12-23.45v-95.09c0-20.66-2.13-21.64-20.99-23.12v-7.38h72.47ZM802.48,586.4c0,19.02,8.36,23.45,26.4,23.45,45.74,0,67.71-33.28,67.71-70.99,0-24.76-9.67-45.09-27.71-56.4-11.31-7.54-26.07-11.15-43.61-11.15-10.99,0-17.05,1.64-19.67,3.28-2.3,1.64-3.12,4.59-3.12,13.94v97.88Z"/>
  </g>
  <g>
    <path class="cls-3" d="M394.2,724.42h13.83v17.84h-103.78c-.42-.14-.89-.4-1.42-.79-.53-.39-1.04-.9-1.52-1.52-.48-.62-.89-1.34-1.21-2.14-.32-.81-.48-1.72-.48-2.73,0-.18.02-.37.07-.55v-24.2l12.51-4.84v13.34c.37,3.73,2.74,5.6,7.12,5.6h57.53v-25.24l17.35-6.22v31.46ZM349.12,752.84l12.65,12.65-12.65,12.72-12.72-12.72,12.72-12.65Z"/>
    <path class="cls-4" d="M415.08,724.42c-.74-1.61-1.11-3.32-1.11-5.12,0-.92.11-1.89.35-2.9.55-2.9,1.58-5.73,3.08-8.47,1.5-2.74,3.32-5.25,5.46-7.54,2.14-2.28,4.34-4.02,6.6-5.22.05-1.01.32-2.22.83-3.63.51-1.41,1.18-2.77,2-4.08.83-1.31,1.83-2.44,3.01-3.39,1.18-.94,2.48-1.49,3.91-1.62,1.01-.09,1.98-.14,2.9-.14,2.95,0,5.85.39,8.71,1.17,3.78,1.11,7.37,2.72,10.79,4.84,3.41,2.12,6.54,4.64,9.4,7.57,2.86,2.93,5.38,6.02,7.57,9.27,2.19,3.25,3.94,6.53,5.25,9.85,1.31,3.32,2.08,6.45,2.32,9.4l-2.7,17.84h-78.89v-17.84h10.51ZM441.29,724.42c.88-.92,1.64-2.01,2.28-3.25.65-1.24,1.08-2.53,1.31-3.87.09-.83.14-1.66.14-2.49v-1.38c-.14-1.29-.53-2.43-1.18-3.42-.65-.99-1.53-1.8-2.66-2.42-1.13-.62-2.55-.93-4.25-.93-3.04,0-5.25.66-6.64,1.97-1.38,1.31-2.14,2.89-2.28,4.74-.05.37-.07.72-.07,1.04,0,1.57.32,3.18.97,4.84.78,2.03,1.8,3.76,3.04,5.19h9.33ZM469.71,724.42c-.14-1.01-.42-2.27-.83-3.77-.42-1.5-1.14-3.07-2.18-4.7-1.04-1.63-2.42-3.27-4.15-4.91-1.73-1.64-3.98-3.1-6.74-4.39.88,1.89,1.56,3.59,2.04,5.12.48,1.52.73,2.93.73,4.22,0,1.61-.14,3.12-.41,4.53-.28,1.41-.67,2.71-1.18,3.91h12.72Z"/>
    <path class="cls-2" d="M542.31,724.42c0-3.18-.21-5.6-.62-7.26-.41-1.66-.93-3.38-1.56-5.15-.62-1.77-1.35-3.56-2.18-5.36-.83-1.8-1.66-3.47-2.49-5.01-.83-1.54-1.65-2.94-2.45-4.18-.81-1.24-1.53-2.19-2.18-2.83l12.58-13.9c.42.23,1.04.92,1.87,2.07.83,1.15,1.77,2.66,2.83,4.53,1.06,1.87,2.2,4.04,3.42,6.53,1.22,2.49,2.4,5.22,3.53,8.19,1.13,2.97,2.14,6.11,3.04,9.4.9,3.3,1.62,7.62,2.18,12.96h12.38v17.84h-68.04c-.42-.14-.88-.4-1.38-.79-.51-.39-1.01-.9-1.52-1.52-.51-.62-.92-1.34-1.24-2.14-.32-.81-.48-1.72-.48-2.73v-18.95h4.15v.69c0,1.75.35,3.27,1.04,4.56.83,1.48,2.14,2.49,3.94,3.04h33.19ZM524.12,656.73l12.65,12.65-12.65,12.72-12.72-12.72,12.72-12.65Z"/>
    <path class="cls-1" d="M569.13,724.42h20.26v-60.08l17.35-6.22v84.15h-37.61v-17.84Z"/>
    <path class="cls-5" d="M623.75,742.05v-77.58l17.35-6.22v83.8h-17.35Z"/>
    <path class="cls-10" d="M742.82,724.42v17.84h-15.35c-.88,3.37-2.06,6.55-3.56,9.54-1.5,3-3.35,5.74-5.57,8.23-3.83,4.33-7.56,7.51-11.2,9.54-3.64,2.03-7.26,3.11-10.86,3.25-.42.05-.81.07-1.18.07-3.23,0-6.5-.67-9.82-2-3.69-1.48-7.42-3.55-11.2-6.22l-2.97-2.07c11.16-1.2,19.8-3.55,25.93-7.05,6.13-3.5,10.26-7.79,12.38-12.86,1.38-3.27,2.07-6.94,2.07-10.99,0-2.12-.21-4.36-.62-6.71-1.11-6.78-3.57-14.36-7.4-22.75l15.9-9.89c2.9,4.38,5.21,9.35,6.91,14.9,1.7,5.55,2.67,11.28,2.9,17.18h13.62Z"/>
    <path class="cls-11" d="M739.36,724.42h10.51c1.98-.14,3.73-.26,5.25-.38,1.52-.11,2.96-.29,4.32-.52,1.36-.23,2.7-.56,4.01-1,1.31-.44,2.78-1.05,4.39-1.83-1.66-1.06-3.19-2.07-4.6-3.04-1.41-.97-2.8-1.81-4.18-2.52-1.38-.71-2.83-1.26-4.36-1.62-1.11-.28-2.31-.42-3.6-.42-.51,0-1.01.02-1.52.07.09-.23.29-.92.59-2.07.3-1.15.66-2.51,1.07-4.08.42-1.57.85-3.24,1.31-5.01.46-1.77.89-3.4,1.28-4.88.39-1.47.73-2.7,1-3.66l.35-1.45c2.72-.83,5.35-1.66,7.88-2.49,2.53-.83,5.07-1.56,7.61-2.18,2.53-.62,5.12-1.12,7.74-1.49,2.07-.23,4.29-.35,6.64-.35h1.87c3.55.14,6.56.74,9.02,1.8,2.46,1.06,4.45,2.44,5.95,4.15s2.57,3.62,3.22,5.74c.51,1.8.76,3.64.76,5.53v.97c-.14,2.26-.59,4.47-1.35,6.64-.76,2.17-1.79,4.1-3.08,5.81-1.11,1.52-2.3,2.81-3.59,3.87-1.29,1.06-2.65,2.12-4.08,3.18.32.37.8.65,1.42.83.62.18,1.32.32,2.11.42h18.95v17.84h-26.9c-.97-.18-1.9-.59-2.8-1.21-.9-.62-1.74-1.37-2.52-2.25-.78-.88-1.54-1.85-2.28-2.94-.74-1.08-1.45-2.18-2.14-3.28-1.29,1.48-3.12,2.8-5.5,3.98-2.37,1.18-4.85,2.19-7.43,3.04-2.58.85-5,1.51-7.26,1.97-2.26.46-3.92.69-4.98.69h-15.07v-17.84ZM783.82,713.56c3.5-3.23,5.49-5.85,5.95-7.88.04-.42.07-.81.07-1.18,0-1.38-.65-2.42-1.94-3.11-1.29-.6-3.07-.9-5.32-.9-.74,0-1.52.02-2.35.07-3.41.28-7.24,1.08-11.48,2.42,2.9,1.43,5.64,2.99,8.19,4.67,2.56,1.68,4.85,3.65,6.88,5.91Z"/>
    <path class="cls-12" d="M836.5,742.19h-23.23v-17.91h14.93v-25.1l17.35-6.22v31.46h15.83v-25.24l17.36-6.22v31.46h14.45v-25.24l17.35-6.22v49.3h-74.05v-.07Z"/>
  </g>
</svg>